<?xml version="1.0" encoding="UTF-8" standalone="no"?> <svg width="60" height="60" viewBox="0 0 60 60" fill="none" xmlns="http://www.w3.org/2000/svg">
<g clip-path="url(#clip0)">
<path d="M4.5752 37.3394C4.30998 37.3393 4.05564 37.234 3.8681 37.0465C3.68057 36.8589 3.57521 36.6046 3.5752 36.3394V34.5859C3.5752 34.3207 3.68055 34.0664 3.86809 33.8788C4.05562 33.6913 4.30998 33.5859 4.5752 33.5859C4.84041 33.5859 5.09477 33.6913 5.2823 33.8788C5.46984 34.0664 5.5752 34.3207 5.5752 34.5859V36.3394C5.57518 36.6046 5.46982 36.8589 5.28228 37.0464C5.09475 37.234 4.84041 37.3393 4.5752 37.3394V37.3394ZM52.68 4.63H46.07V3.05C46.0685 2.24156 45.7467 1.46666 45.175 0.895C44.6033 0.323343 43.8284 0.00151726 43.02 7.80917e-08H41.54C41.1394 -9.05705e-05 40.7428 0.0787381 40.3727 0.231983C40.0026 0.385228 39.6664 0.609885 39.3831 0.893122C39.0999 1.17636 38.8752 1.51262 38.722 1.88271C38.5687 2.25279 38.4899 2.64944 38.49 3.05V4.63H21.47V3.05C21.4685 2.24155 21.1467 1.46666 20.575 0.894997C20.0033 0.323339 19.2284 0.00151463 18.42 7.80917e-08H16.94C16.1316 0.00151726 15.3567 0.323343 14.785 0.895C14.2133 1.46666 13.8915 2.24156 13.89 3.05V4.63H7.32C6.3297 4.62962 5.37971 5.02216 4.67853 5.72146C3.97734 6.42077 3.58226 7.36971 3.58 8.36V30.2C3.58 30.4652 3.68535 30.7196 3.87289 30.9071C4.06042 31.0946 4.31478 31.2 4.58 31.2C4.84521 31.2 5.09957 31.0946 5.2871 30.9071C5.47464 30.7196 5.58 30.4652 5.58 30.2V18.75H54.42V46.98C54.4201 47.4424 54.2371 47.8861 53.911 48.214C53.585 48.5419 53.1424 48.7274 52.68 48.73H46.98C46.7148 48.73 46.4604 48.8354 46.2729 49.0229C46.0854 49.2104 45.98 49.4648 45.98 49.73C45.98 49.9952 46.0854 50.2496 46.2729 50.4371C46.4604 50.6246 46.7148 50.73 46.98 50.73H52.68C53.6729 50.7276 54.6243 50.3314 55.3254 49.6283C56.0265 48.9253 56.4202 47.9729 56.42 46.98V8.36C56.4177 7.36971 56.0226 6.42077 55.3215 5.72146C54.6203 5.02216 53.6703 4.62962 52.68 4.63V4.63ZM40.49 3.05C40.49 2.91211 40.5171 2.77556 40.5699 2.64816C40.6227 2.52076 40.7 2.405 40.7975 2.3075C40.895 2.20999 41.0108 2.13265 41.1382 2.07989C41.2656 2.02713 41.4021 1.99998 41.54 2H43.02C43.1579 1.99998 43.2944 2.02713 43.4218 2.07989C43.5492 2.13265 43.665 2.20999 43.7625 2.3075C43.86 2.405 43.9373 2.52076 43.9901 2.64816C44.0429 2.77556 44.07 2.91211 44.07 3.05V8.2C44.07 8.33789 44.0429 8.47444 43.9901 8.60183C43.9373 8.72923 43.86 8.84499 43.7625 8.94249C43.665 9.04 43.5492 9.11734 43.4218 9.1701C43.2944 9.22286 43.1579 9.25001 43.02 9.25H41.54C41.4021 9.25001 41.2656 9.22286 41.1382 9.1701C41.0108 9.11734 40.895 9.04 40.7975 8.94249C40.7 8.84499 40.6227 8.72923 40.5699 8.60183C40.5171 8.47444 40.49 8.33789 40.49 8.2V3.05ZM15.89 3.05C15.89 2.91211 15.9171 2.77556 15.9699 2.64816C16.0226 2.52075 16.1 2.40499 16.1975 2.30749C16.295 2.20998 16.4107 2.13264 16.5382 2.07988C16.6656 2.02712 16.8021 1.99998 16.94 2H18.42C18.5579 1.99998 18.6944 2.02712 18.8218 2.07988C18.9492 2.13264 19.065 2.20998 19.1625 2.30749C19.26 2.40499 19.3374 2.52075 19.3901 2.64816C19.4429 2.77556 19.47 2.91211 19.47 3.05V8.2C19.47 8.33789 19.4429 8.47444 19.3901 8.60184C19.3373 8.72924 19.26 8.845 19.1625 8.9425C19.065 9.04001 18.9492 9.11735 18.8218 9.17011C18.6944 9.22287 18.5579 9.25002 18.42 9.25H16.94C16.8021 9.25002 16.6656 9.22287 16.5382 9.17011C16.4108 9.11735 16.295 9.04001 16.1975 8.9425C16.1 8.845 16.0226 8.72924 15.9699 8.60184C15.9171 8.47444 15.89 8.33789 15.89 8.2V3.05ZM5.58 16.75V8.36C5.5824 7.90019 5.76682 7.46004 6.09289 7.13583C6.41897 6.81163 6.86017 6.62976 7.32 6.63H13.89V8.2C13.8915 9.00844 14.2133 9.78334 14.785 10.355C15.3567 10.9267 16.1316 11.2485 16.94 11.25H18.42C19.2284 11.2485 20.0033 10.9267 20.575 10.355C21.1467 9.78334 21.4685 9.00844 21.47 8.2V6.63H38.49V8.2C38.4899 8.60056 38.5687 8.99721 38.722 9.36729C38.8752 9.73738 39.0999 10.0736 39.3831 10.3569C39.6664 10.6401 40.0026 10.8648 40.3727 11.018C40.7428 11.1713 41.1394 11.2501 41.54 11.25H43.02C43.8284 11.2485 44.6033 10.9267 45.175 10.355C45.7467 9.78334 46.0685 9.00844 46.07 8.2V6.63H52.68C53.1398 6.62976 53.581 6.81163 53.9071 7.13583C54.2332 7.46004 54.4176 7.90019 54.42 8.36V16.75H5.58ZM13.02 50.73H7.31982C6.32696 50.7275 5.37563 50.3313 4.67453 49.6283C3.97344 48.9253 3.57984 47.9729 3.58008 46.98V40.7202C3.58008 40.455 3.68543 40.2006 3.87297 40.0131C4.0605 39.8256 4.31486 39.7202 4.58008 39.7202C4.84529 39.7202 5.09965 39.8256 5.28718 40.0131C5.47472 40.2006 5.58008 40.455 5.58008 40.7202V46.98C5.57923 47.4426 5.76193 47.8867 6.08808 48.2147C6.41423 48.5428 6.85721 48.7281 7.31982 48.73H13.02C13.2852 48.73 13.5396 48.8354 13.7271 49.0229C13.9146 49.2104 14.02 49.4648 14.02 49.73C14.02 49.9952 13.9146 50.2496 13.7271 50.4371C13.5396 50.6246 13.2852 50.73 13.02 50.73ZM30.17 42.4092C26.95 41.4492 24.98 40.6992 24.98 37.5292C24.9797 36.195 25.5075 34.9149 26.4482 33.9686C27.3888 33.0223 28.6658 32.4869 30 32.4792H30.03C31.3679 32.481 32.6503 33.0139 33.5954 33.9609C34.5405 34.9079 35.0709 36.1914 35.07 37.5292C35.07 37.7945 35.1754 38.0488 35.3629 38.2363C35.5504 38.4239 35.8048 38.5292 36.07 38.5292C36.3352 38.5292 36.5896 38.4239 36.7771 38.2363C36.9646 38.0488 37.07 37.7945 37.07 37.5292C37.0703 35.8304 36.4558 34.1888 35.3401 32.9076C34.2244 31.6265 32.6828 30.7923 31 30.5592V27.9892C31 27.724 30.8946 27.4697 30.7071 27.2821C30.5196 27.0946 30.2652 26.9892 30 26.9892C29.7348 26.9892 29.4804 27.0946 29.2929 27.2821C29.1054 27.4697 29 27.724 29 27.9892V30.5592C27.328 30.8072 25.8006 31.6472 24.6958 32.9264C23.5909 34.2056 22.9821 35.839 22.98 37.5292C22.98 42.3592 26.65 43.4492 29.6 44.3292C32.96 45.3292 35.02 46.1192 35.02 49.6192C35.0183 50.9519 34.4895 52.2299 33.549 53.1741C32.6085 54.1183 31.3327 54.6522 30 54.6592H29.97C28.6337 54.6581 27.3524 54.1267 26.4075 53.1818C25.4626 52.2368 24.9312 50.9556 24.93 49.6192C24.93 49.354 24.8246 49.0997 24.6371 48.9121C24.4496 48.7246 24.1952 48.6192 23.93 48.6192C23.6648 48.6192 23.4104 48.7246 23.2229 48.9121C23.0354 49.0997 22.93 49.354 22.93 49.6192C22.9316 51.3165 23.5469 52.956 24.6625 54.2352C25.7781 55.5143 27.3187 56.3469 29 56.5792V58.9992C29 59.2645 29.1054 59.5188 29.2929 59.7063C29.4804 59.8939 29.7348 59.9992 30 59.9992C30.2652 59.9992 30.5196 59.8939 30.7071 59.7063C30.8946 59.5188 31 59.2645 31 58.9992V56.5792C32.6705 56.332 34.1969 55.4936 35.3016 54.2164C36.4063 52.9392 37.0161 51.3079 37.02 49.6192C37.02 44.4492 33.22 43.3192 30.17 42.4092V42.4092Z" fill="black"/>
</g>
<defs>
<clipPath id="clip0">
<rect width="60" height="60" fill="white"/>
</clipPath>
</defs>
</svg>
